<?xml version="1.0" encoding="UTF-8" standalone="no"?>
<!DOCTYPE svg PUBLIC "-//W3C//DTD SVG 1.1//EN" "http://www.w3.org/Graphics/SVG/1.1/DTD/svg11.dtd">
<svg width="100%" height="100%" viewBox="0 0 32 32" version="1.1" xmlns="http://www.w3.org/2000/svg" xmlns:xlink="http://www.w3.org/1999/xlink" xml:space="preserve" xmlns:serif="http://www.serif.com/" style="fill-rule:evenodd;clip-rule:evenodd;stroke-linejoin:round;stroke-miterlimit:2;">
    <g id="svg_1" transform="matrix(0.975009,0,0,0.974683,0.399853,0.405073)">
        <path d="M13.807,26.992C6.522,26.992 0.616,21.086 0.616,13.801C0.616,6.516 6.522,0.61 13.807,0.61C21.092,0.61 26.998,6.516 26.998,13.801C26.998,17.828 25.193,21.433 22.351,23.852L28.254,23.852L28.254,23.904C30.181,24.235 31.534,25.986 31.371,27.935C31.208,29.883 29.581,31.383 27.626,31.39L1.872,31.39C1.539,31.39 1.265,31.131 1.245,30.798C1.226,30.466 1.468,30.177 1.798,30.138L1.872,30.133L27.626,30.133C29.014,30.133 30.138,29.009 30.138,27.621C30.138,26.232 29.014,25.108 27.626,25.108L20.605,25.108C18.62,26.305 16.294,26.993 13.806,26.993L13.807,26.992L13.807,26.992ZM13.807,21.339C13.488,21.339 13.221,21.578 13.183,21.894L13.178,21.967L13.178,23.224L13.183,23.298C13.221,23.613 13.488,23.852 13.807,23.852C14.125,23.852 14.392,23.613 14.43,23.298L14.435,23.224L14.435,21.967L14.43,21.894C14.392,21.578 14.125,21.339 13.807,21.339ZM19.137,19.131C18.914,19.356 18.89,19.711 19.085,19.96L19.137,20.02L20.025,20.909L20.08,20.958L20.08,20.956C20.328,21.152 20.685,21.132 20.911,20.909C21.136,20.686 21.159,20.329 20.966,20.08L20.914,20.02L20.025,19.131L19.97,19.083C19.721,18.885 19.363,18.907 19.137,19.131ZM7.648,19.079L7.588,19.131L6.699,20.02L6.65,20.075L6.652,20.075C6.456,20.323 6.476,20.68 6.699,20.906C6.922,21.13 7.279,21.154 7.528,20.961L7.588,20.909L8.477,20.02L8.525,19.965C8.722,19.715 8.701,19.359 8.478,19.134C8.255,18.908 7.899,18.885 7.648,19.079ZM13.807,10.032C11.726,10.032 10.038,11.721 10.038,13.801C10.038,15.882 11.726,17.57 13.807,17.57C15.887,17.57 17.576,15.882 17.576,13.801C17.576,11.721 15.887,10.032 13.807,10.032ZM23.229,13.173L21.973,13.173L21.899,13.178C21.583,13.216 21.345,13.483 21.345,13.801C21.345,14.12 21.583,14.387 21.899,14.425L21.973,14.43L23.229,14.43L23.303,14.425C23.633,14.386 23.875,14.097 23.856,13.765C23.835,13.432 23.562,13.173 23.229,13.173L23.229,13.173ZM5.641,13.173L4.384,13.173L4.311,13.178C3.995,13.216 3.756,13.483 3.756,13.801C3.756,14.12 3.995,14.387 4.311,14.425L4.384,14.43L5.641,14.43L5.715,14.425C6.044,14.386 6.286,14.097 6.267,13.765C6.247,13.432 5.974,13.173 5.641,13.173L5.641,13.173ZM6.699,6.694C6.476,6.918 6.454,7.273 6.647,7.523L6.699,7.583L7.588,8.472L7.643,8.52C7.893,8.717 8.249,8.696 8.474,8.473C8.7,8.25 8.723,7.894 8.529,7.642L8.477,7.583L7.588,6.694L7.533,6.645L7.533,6.647C7.283,6.449 6.925,6.469 6.699,6.694ZM20.084,6.642L20.024,6.694L19.135,7.583L19.086,7.638L19.088,7.638C18.892,7.887 18.912,8.244 19.135,8.468C19.358,8.695 19.715,8.718 19.966,8.523L20.026,8.472L20.914,7.583L20.963,7.528L20.961,7.528C21.158,7.28 21.137,6.923 20.914,6.697C20.691,6.472 20.335,6.449 20.085,6.642L20.084,6.642ZM13.807,3.751C13.488,3.751 13.221,3.99 13.183,4.305L13.179,4.379L13.179,5.635L13.183,5.709C13.221,6.025 13.488,6.264 13.807,6.264C14.126,6.264 14.393,6.025 14.43,5.709L14.435,5.635L14.435,4.379L14.43,4.305C14.393,3.99 14.126,3.751 13.807,3.751Z" style="fill-rule:nonzero; fill:#acacac;"/>
    </g>
</svg>