<?xml version="1.0" encoding="UTF-8" standalone="no"?>
<!DOCTYPE svg PUBLIC "-//W3C//DTD SVG 1.1//EN" "http://www.w3.org/Graphics/SVG/1.1/DTD/svg11.dtd">
<svg width="100%" height="100%" viewBox="0 0 32 32" version="1.1" xmlns="http://www.w3.org/2000/svg" xmlns:xlink="http://www.w3.org/1999/xlink" xml:space="preserve" xmlns:serif="http://www.serif.com/" style="fill-rule:evenodd;clip-rule:evenodd;stroke-linejoin:round;stroke-miterlimit:2;">
    <g transform="matrix(1.13714,0,0,1.13713,-1.72152,-3.44843)">
        <path d="M15.584,3.912C22.865,3.912 28.775,9.823 28.775,17.103C28.775,24.383 22.865,30.294 15.584,30.294C8.304,30.294 2.393,24.383 2.393,17.103C2.393,9.823 8.304,3.912 15.584,3.912ZM20.914,22.433C20.691,22.657 20.668,23.012 20.862,23.262L20.914,23.322L21.803,24.211L21.858,24.259L21.858,24.258C22.106,24.454 22.463,24.434 22.689,24.211C22.913,23.988 22.937,23.631 22.744,23.381L22.692,23.322L21.803,22.433L21.748,22.384C21.498,22.186 21.14,22.208 20.914,22.433ZM15.584,24.641C15.266,24.641 14.999,24.88 14.961,25.195L14.956,25.269L14.956,26.525L14.961,26.599C14.999,26.915 15.266,27.153 15.584,27.153C15.903,27.153 16.17,26.915 16.208,26.599L16.213,26.525L16.213,25.269L16.208,25.195C16.17,24.88 15.903,24.641 15.584,24.641ZM15.584,13.334C13.504,13.334 11.815,15.022 11.815,17.103C11.815,19.184 13.504,20.872 15.584,20.872C17.665,20.872 19.353,19.184 19.353,17.103C19.353,15.022 17.665,13.334 15.584,13.334ZM9.425,22.381L9.366,22.433L8.477,23.322L8.428,23.377L8.43,23.377C8.234,23.625 8.254,23.981 8.477,24.207C8.7,24.432 9.056,24.456 9.306,24.262L9.366,24.211L10.255,23.322L10.303,23.267C10.5,23.017 10.479,22.661 10.256,22.436C10.033,22.21 9.677,22.186 9.425,22.381ZM8.477,9.995C8.254,10.22 8.232,10.575 8.425,10.825L8.477,10.884L9.366,11.773L9.421,11.822C9.67,12.018 10.027,11.998 10.251,11.775C10.478,11.552 10.501,11.195 10.306,10.944L10.255,10.884L9.366,9.995L9.311,9.947L9.311,9.948C9.061,9.75 8.703,9.771 8.477,9.995ZM7.419,16.475L6.162,16.475L6.088,16.48C5.773,16.517 5.534,16.784 5.534,17.103C5.534,17.422 5.773,17.689 6.088,17.726L6.162,17.731L7.419,17.731L7.492,17.726C7.822,17.687 8.064,17.398 8.045,17.067C8.025,16.734 7.751,16.475 7.419,16.475ZM21.861,9.944L21.802,9.995L20.913,10.884L20.864,10.939L20.866,10.939C20.669,11.189 20.69,11.545 20.913,11.77C21.136,11.996 21.492,12.02 21.744,11.825L21.803,11.773L22.692,10.884L22.741,10.829L22.739,10.829C22.936,10.581 22.915,10.225 22.692,9.999C22.469,9.774 22.113,9.75 21.863,9.944L21.861,9.944ZM15.585,7.053C15.266,7.053 14.999,7.291 14.961,7.607L14.956,7.681L14.956,8.937L14.961,9.011C14.999,9.326 15.266,9.565 15.585,9.565C15.903,9.565 16.17,9.326 16.208,9.011L16.213,8.937L16.213,7.681L16.208,7.607C16.17,7.291 15.903,7.053 15.585,7.053ZM25.007,16.475L23.751,16.475L23.677,16.48C23.361,16.517 23.122,16.784 23.122,17.103C23.122,17.422 23.361,17.689 23.677,17.726L23.751,17.731L25.007,17.731L25.081,17.726C25.41,17.687 25.652,17.398 25.633,17.067C25.613,16.734 25.34,16.475 25.007,16.475Z" style="fill:rgb(156,122,86);"/>
    </g>
</svg>
